<svg xmlns="http://www.w3.org/2000/svg" viewBox="0 0 120 120" width="120" height="120">
  <!-- Đảo cỏ xanh giữa Hồ Gươm -->
  <ellipse cx="60" cy="85" rx="55" ry="30" fill="#2d6a4f" />
  <ellipse cx="60" cy="82" rx="50" ry="26" fill="#40916c" />
  <ellipse cx="60" cy="78" rx="42" ry="20" fill="#52b788" />

  <!-- Tầng 1 Tháp Rùa -->
  <rect x="36" y="52" width="48" height="28" fill="#d4a373" stroke="#8d5b4c" stroke-width="2" rx="2" />
  <!-- Cửa vòm tầng 1 -->
  <path d="M 44 80 L 44 64 Q 49 59 54 64 L 54 80 Z" fill="#6f1d1b" />
  <path d="M 57 80 L 57 62 Q 60 57 63 62 L 63 80 Z" fill="#6f1d1b" />
  <path d="M 66 80 L 66 64 Q 71 59 76 64 L 76 80 Z" fill="#6f1d1b" />
  <!-- Mái tầng 1 -->
  <polygon points="30,52 90,52 84,46 36,46" fill="#bc4749" stroke="#6f1d1b" stroke-width="1.5" />

  <!-- Tầng 2 Tháp Rùa -->
  <rect x="42" y="30" width="36" height="16" fill="#e9c46a" stroke="#8d5b4c" stroke-width="1.5" rx="1" />
  <!-- Cửa vòm tầng 2 -->
  <path d="M 48 46 L 48 36 Q 51 33 54 36 L 54 46 Z" fill="#6f1d1b" />
  <path d="M 57 46 L 57 35 Q 60 32 63 35 L 63 46 Z" fill="#6f1d1b" />
  <path d="M 66 46 L 66 36 Q 69 33 72 36 L 72 46 Z" fill="#6f1d1b" />
  <!-- Mái tầng 2 -->
  <polygon points="38,30 82,30 76,25 44,25" fill="#bc4749" stroke="#6f1d1b" stroke-width="1.5" />

  <!-- Tầng 3 Tháp Rùa -->
  <rect x="48" y="16" width="24" height="9" fill="#f4a261" stroke="#8d5b4c" stroke-width="1" />
  <!-- Mái đỉnh -->
  <polygon points="45,16 75,16 67,10 53,10" fill="#bc4749" stroke="#6f1d1b" stroke-width="1.5" />
  <!-- Đỉnh tháp -->
  <rect x="58" y="5" width="4" height="5" fill="#e76f51" />
  <circle cx="60" cy="4" r="2.5" fill="#e9c46a" />

  <!-- Rêu phong cổ kính -->
  <path d="M 37 54 Q 40 60 43 55" stroke="#2d6a4f" stroke-width="2" fill="none" />
  <path d="M 77 56 Q 81 62 83 58" stroke="#2d6a4f" stroke-width="2" fill="none" />
</svg>
