<svg xmlns="http://www.w3.org/2000/svg" width="244" height="157" viewBox="0 0 244 157"><defs>
    <pattern id="roof" width="10" height="7" patternUnits="userSpaceOnUse"><rect width="10" height="7" fill="#bc542f"/><path d="M0 6H10 M5 0V6" stroke="#813c29" stroke-width="1.3"/><path d="M0 1H9" stroke="#e78b53" stroke-width="1.2"/></pattern>
    <pattern id="wall" width="14" height="9" patternUnits="userSpaceOnUse"><rect width="14" height="9" fill="#ddc596"/><path d="M0 9H14 M7 0V9" stroke="#bda47e" stroke-width=".5"/></pattern>
    <pattern id="metal" width="9" height="9" patternUnits="userSpaceOnUse"><rect width="9" height="9" fill="#568e80"/><path d="M0 0V9 M3 0V9" stroke="#396158"/><path d="M8 0V9" stroke="#8bbaa3"/></pattern>
    </defs><ellipse cx="120" cy="151" rx="114" ry="6" fill="#354635" opacity=".3"/><path d="M8 49H230V137H8Z" fill="url(#wall)" stroke="#796342" stroke-width="2"/><path d="M0 52L23 13H215L242 52Z" fill="url(#roof)" stroke="#634934" stroke-width="2"/><path d="M18 13H220" stroke="#e0b483" stroke-width="4"/><path d="M8 54H230" stroke="#f3dfad" stroke-width="7"/><rect x="16" y="73" width="23" height="39" fill="#f0dfb1" stroke="#8a7756"/><rect x="18" y="75" width="19" height="35" fill="#27424b"/><path d="M27.5 75V110 M18 92.5H37" stroke="#7ca3a4"/><rect x="14" y="112" width="27" height="3" fill="#a9916b"/><rect x="50" y="73" width="23" height="39" fill="#f0dfb1" stroke="#8a7756"/><rect x="52" y="75" width="19" height="35" fill="#27424b"/><path d="M61.5 75V110 M52 92.5H71" stroke="#7ca3a4"/><rect x="48" y="112" width="27" height="3" fill="#a9916b"/><rect x="164" y="73" width="23" height="39" fill="#f0dfb1" stroke="#8a7756"/><rect x="166" y="75" width="19" height="35" fill="#27424b"/><path d="M175.5 75V110 M166 92.5H185" stroke="#7ca3a4"/><rect x="162" y="112" width="27" height="3" fill="#a9916b"/><rect x="199" y="73" width="23" height="39" fill="#f0dfb1" stroke="#8a7756"/><rect x="201" y="75" width="19" height="35" fill="#27424b"/><path d="M210.5 75V110 M201 92.5H220" stroke="#7ca3a4"/><rect x="197" y="112" width="27" height="3" fill="#a9916b"/><rect x="87" y="66" width="67" height="70" fill="#ead9ac" stroke="#9b815b"/><rect x="106" y="83" width="30" height="51" fill="#304e51"/><path d="M121 84V132" stroke="#928964" stroke-width="3"/><rect x="88" y="75" width="10" height="60" fill="#f5e6bc" stroke="#b49b70"/><path d="M85 75H101 M85 134H101" stroke="#e5c988" stroke-width="4"/><rect x="145" y="75" width="10" height="60" fill="#f5e6bc" stroke="#b49b70"/><path d="M142 75H158 M142 134H158" stroke="#e5c988" stroke-width="4"/><rect x="77" y="54" width="86" height="20" rx="1" fill="#f5e8cb" stroke="#4e4535" stroke-width="2"/><text x="120.0" y="68" text-anchor="middle" font-family="Arial,sans-serif" font-size="14" font-weight="bold" fill="#253440">TRỤ SỞ</text><path d="M87 139H154 M83 145H158 M79 151H162" stroke="#9f9882" stroke-width="5"/><path d="M123 32V1" stroke="#444942" stroke-width="3"/><path d="M125 0L153 3V22L125 19Z" fill="#d73629"/><path d="M139 5L141 11 147 11 142 15 144 20 139 17 134 20 136 14 132 11 137 11Z" fill="#ffe172"/><rect x="36" y="130" width="15" height="15" fill="#a77449"/><ellipse cx="43" cy="125" rx="13" ry="18" fill="#376b3a"/><ellipse cx="45" cy="119" rx="9" ry="12" fill="#628f43"/><rect x="187" y="130" width="15" height="15" fill="#a77449"/><ellipse cx="194" cy="125" rx="13" ry="18" fill="#376b3a"/><ellipse cx="196" cy="119" rx="9" ry="12" fill="#628f43"/></svg>